<svg xmlns="http://www.w3.org/2000/svg" height="200px" viewBox="0.0 0.0 24.0 24.0" width="200px"><path d="M12.0 2.0 L12.0 2.0 C14.0 2.0 16.3 2.1 17.9 3.5 C19.3 4.7 19.7 6.1 19.4 7.5 C19.2 8.9 18.4 10.3 17.4 11.5 L17.4 11.5 C16.2 10.6 15.8 9.5 15.4 8.2 L15.4 8.2 C14.9 8.4 14.5 8.8 14.0 8.9 C13.3 9.0 12.6 8.9 12.0 8.9 C11.4 8.9 10.8 9.0 10.2 8.9 C9.7 8.8 9.3 8.4 8.9 8.2 L8.9 8.2 C8.4 9.5 8.0 10.6 6.8 11.5 L6.8 11.5 C5.8 10.3 5.0 8.9 4.8 7.5 C4.5 6.1 4.9 4.7 6.3 3.5 C7.9 2.1 10.1 2.0 12.0 2.0 L12.0 2.0" fill="none" filling="0" stroke="black" stroke-opacity="1.0" stroke-width=".3"/><path d="M12.0 3.0 L12.0 3.0 C14.5 3.0 16.3 3.4 18.0 5.4 L18.0 5.4 C15.8 4.9 13.6 4.6 12.0 3.0 L12.0 3.0" fill="none" filling="0" stroke="black" stroke-opacity="1.0" stroke-width=".3"/><path d="M12.0 3.0 L12.0 3.0 C13.6 4.6 16.2 4.9 18.4 5.4 L18.4 5.4 C18.3 5.7 18.2 5.9 18.0 6.1 L18.0 6.1 C15.8 5.6 13.6 5.3 12.0 3.6 L12.0 3.6 C10.4 5.3 8.1 5.6 6.0 6.1 L6.0 6.1 C5.9 5.9 5.8 5.7 5.7 5.4 L5.7 5.4 C7.5 3.3 9.4 3.0 12.0 3.0 L12.0 3.0" fill="none" filling="0" stroke="black" stroke-opacity="1.0" stroke-width=".3"/><path d="M12.0 3.0 L12.0 3.0 C13.1 4.0 14.4 4.7 15.7 5.1 C17.0 5.6 18.4 5.8 19.8 6.0 L19.8 6.0 C19.2 7.8 18.3 9.3 17.2 10.4 C16.1 11.6 14.6 12.3 12.7 12.7 L12.7 11.4 C14.6 11.0 15.8 10.3 16.7 9.3 C17.7 8.3 18.4 7.0 19.2 5.4 L19.2 5.4 C18.4 5.3 17.6 5.1 16.8 4.8 L16.8 4.8 C17.1 4.6 17.4 4.4 17.7 4.2 L17.7 4.2 C17.8 4.2 17.9 4.2 18.0 4.2 L18.0 4.2 C18.5 4.6 19.0 4.9 19.5 5.3 L19.5 5.3 C18.9 7.1 18.1 8.3 17.0 9.3 C15.9 10.4 14.5 11.1 12.7 11.5 L12.7 11.5 C12.7 10.0 12.5 9.0 12.0 7.6 L12.0 7.6 C11.5 9.0 11.3 10.0 11.3 11.5 L11.3 11.5 C9.5 11.1 8.1 10.4 7.1 9.3 C6.0 8.3 5.2 7.1 4.5 5.3 L4.5 5.3 C5.0 4.9 5.5 4.6 6.0 4.2 L6.0 4.2 C6.2 4.2 6.3 4.2 6.4 4.2 L6.4 4.2 C6.7 4.4 7.0 4.6 7.3 4.8 L7.3 4.8 C6.5 5.1 5.7 5.3 4.9 5.4 L4.9 5.4 C5.6 7.0 6.3 8.3 7.3 9.3 C8.3 10.3 9.5 11.0 11.3 11.4 L11.3 12.7 C9.5 12.3 8.0 11.6 6.8 10.4 C5.7 9.3 4.9 7.8 4.3 6.0 L4.3 6.0 C5.6 5.8 7.0 5.6 8.3 5.1 C9.6 4.7 10.9 4.0 12.0 3.0 L12.0 3.0" fill="none" filling="0" stroke="black" stroke-opacity="1.0" stroke-width=".3"/><path d="M12.0 3.0 L12.0 3.0 C13.6 4.6 16.1 4.9 18.4 5.4 L18.4 5.4 C18.3 5.7 18.2 5.9 18.0 6.2 L18.0 6.2 C15.8 5.6 13.6 5.3 12.0 3.6 L12.0 3.6 C10.4 5.3 8.1 5.6 6.0 6.2 L6.0 6.2 C5.8 5.9 5.7 5.7 5.6 5.4 L5.6 5.4 C7.8 4.9 10.2 4.6 12.0 3.0 L12.0 3.0" fill="none" filling="0" stroke="black" stroke-opacity="1.0" stroke-width=".3"/><path d="M12.0 3.0 L12.0 3.0 C13.6 4.6 16.1 4.9 18.4 5.4 L18.4 5.4 C18.3 5.7 18.2 5.9 18.0 6.2 L18.0 6.2 C15.8 5.6 13.6 5.3 12.0 3.6 L12.0 3.6 C10.4 5.3 8.1 5.6 6.0 6.2 L6.0 6.2 C5.8 5.9 5.7 5.7 5.6 5.4 L5.6 5.4 C7.8 4.9 10.2 4.6 12.0 3.0 L12.0 3.0" fill="none" filling="0" stroke="black" stroke-opacity="1.0" stroke-width=".3"/><path d="M12.0 3.0 L12.0 3.0 C13.6 4.6 16.1 4.9 18.4 5.4 L18.4 5.4 C18.3 5.7 18.2 5.9 18.0 6.2 L18.0 6.2 C15.8 5.6 13.6 5.3 12.0 3.6 L12.0 3.6 C10.4 5.3 8.1 5.6 6.0 6.2 L6.0 6.2 C5.8 5.9 5.7 5.7 5.6 5.4 L5.6 5.4 C7.8 4.9 10.2 4.6 12.0 3.0 L12.0 3.0" fill="none" filling="0" stroke="black" stroke-opacity="1.0" stroke-width=".3"/><path d="M12.0 4.4 L12.0 4.4 C13.2 4.7 14.5 5.0 15.6 5.5 C16.7 6.0 17.6 6.8 18.4 7.9 C19.8 9.8 20.2 11.9 20.1 13.8 C19.9 15.8 19.1 17.7 17.7 19.1 C16.4 20.5 14.5 21.3 12.0 21.3 C9.5 21.3 7.6 20.5 6.3 19.1 C4.9 17.7 4.2 15.8 4.0 13.8 C3.9 11.9 4.3 9.8 5.6 7.9 C6.4 6.8 7.3 6.0 8.4 5.5 C9.5 5.0 10.7 4.7 12.0 4.4 L12.0 4.4" fill="none" filling="0" stroke="black" stroke-opacity="1.0" stroke-width=".3"/><path d="M6.6 4.8 L12.0 4.8 L17.4 4.8 L17.4 11.3 C17.0 12.9 17.2 13.3 16.0 14.6 C14.6 16.0 12.9 16.0 11.5 15.3 C10.1 14.5 8.9 13.0 8.5 11.3 L8.5 5.9 L9.0 5.9 L9.0 11.3 C9.6 13.1 10.9 14.2 12.3 14.5 C13.7 14.7 15.2 14.1 16.2 12.5 C16.6 12.0 16.6 10.6 16.7 10.0 L16.7 8.1 L17.2 8.1 L17.2 10.0 C17.1 10.5 17.1 11.6 16.9 12.1 C16.3 13.9 15.1 14.8 13.7 15.1 C12.3 15.3 10.7 14.8 9.6 13.7 C9.1 13.2 9.2 11.9 9.0 11.3 L9.0 5.9 L9.6 5.9 L9.6 11.3 C9.9 11.8 10.0 12.4 10.4 12.9 C11.9 14.6 13.7 14.4 15.0 13.4 C16.2 12.4 17.1 10.6 16.7 8.9 C16.3 6.7 13.0 5.8 10.9 6.4 C10.3 6.6 9.7 7.0 9.3 7.4 C9.0 7.7 8.8 8.7"/></svg>