<svg xmlns="http://www.w3.org/2000/svg" height="200px" viewBox="0.0 0.0 24.0 24.0" width="200px"><path d="M3.6 1.2 L9.2 1.2 L14.8 1.2 L20.4 1.2 C21.0 1.4 21.7 1.5 22.1 1.9 C22.5 2.3 22.6 3.0 22.8 3.6 L22.8 9.2 L22.8 14.8 L22.8 20.4 C22.6 21.0 22.5 21.7 22.1 22.1 C21.7 22.5 21.0 22.6 20.4 22.8 L14.8 22.8 L9.2 22.8 L3.6 22.8 C3.0 22.6 2.3 22.5 1.9 22.1 C1.5 21.7 1.4 21.0 1.2 20.4 L1.2 14.8 L1.2 9.2 L1.2 3.6 C1.4 3.0 1.5 2.3 1.9 1.9 C2.3 1.5 3.0 1.4 3.6 1.2 L3.6 1.2" fill="none" filling="0" stroke="black" stroke-opacity="1.0" stroke-width=".3"/><path d="M6.0 5.5 L6.0 5.5 C7.2 6.0 7.9 6.8 8.7 7.7 L8.7 7.7 C8.9 7.1 8.9 6.4 9.3 6.0 C9.7 5.6 10.3 5.7 10.8 5.5 L12.0 5.5 L12.0 12.0 L12.0 18.5 L10.8 18.5 C10.3 18.3 9.7 18.3 9.3 17.9 C8.9 17.5 8.9 16.8 8.7 16.3 L8.7 16.3 C8.5 16.9 8.5 17.6 8.1 18.0 C7.7 18.4 7.0 18.4 6.5 18.5 L5.4 18.5 L5.4 12.0 L5.4 5.5 L6.0 5.5" fill="none" filling="0" stroke="black" stroke-opacity="1.0" stroke-width=".3"/><path d="M18.3 5.5 L18.3 5.5 C19.1 5.8 19.8 6.5 20.1 7.2 L20.1 7.2 C20.3 6.5 20.3 5.8 20.7 5.4 C21.1 5.0 21.8 5.1 22.4 4.9 L23.7 4.9 L23.7 9.6 L23.7 14.3 L23.7 19.0 L22.4 19.0 C21.8 18.8 21.1 18.8 20.7 18.4 C20.3 18.0 20.3 17.3 20.1 16.8 L20.1 16.8 C19.8 17.4 19.8 18.1 19.4 18.5 C19.0 18.9 18.3 18.9 17.7 19.1 L16.5 19.1 L16.5 12.6 L16.5 6.0 L17.7 6.0 C17.9 5.8 18.1 5.7 18.3 5.5 L18.3 5.5" fill="none" filling="0" stroke="black" stroke-opacity="1.0" stroke-width=".3"/><path d="M14.4 6.0 L14.4 6.0 C14.9 6.3 15.5 6.4 15.9 6.8 C17.2 8.1 16.2 10.4 14.4 10.4 C12.6 10.4 11.6 8.1 12.9 6.8 C13.3 6.4 13.9 6.3 14.4 6.0 L14.4 6.0" fill="none" filling="0" stroke="black" stroke-opacity="1.0" stroke-width=".3"/><path d="M14.4 6.0 L14.4 6.0 C14.9 6.3 15.5 6.4 15.9 6.8 C17.1 8.1 16.2 10.4 14.4 10.4 C12.6 10.4 11.6 8.1 12.9 6.8 C13.3 6.4 13.9 6.3 14.4 6.0 L14.4 6.0" fill="none" filling="0" stroke="black" stroke-opacity="1.0" stroke-width=".3"/><path d="M14.4 6.5 L14.4 6.5 C14.8 6.8 15.3 6.8 15.6 7.3 C16.8 9.3 12.2 9.5 13.4 7.3 C13.6 6.8 14.1 6.8 14.4 6.5 L14.4 6.5" fill="none" filling="0" stroke="black" stroke-opacity="1.0" stroke-width=".3"/><path d="M12.0 12.0 L12.0 12.0 C12.3 12.2 12.5 12.3 12.8 12.5 L12.8 12.5 C13.4 12.1 14.2 12.2 14.9 12.4 L14.9 12.4 C15.4 12.4 16.0 12.2 16.5 12.4 C17.1 12.7 17.4 13.3 17.8 13.8 L17.8 13.8 C18.3 14.0 18.9 13.9 19.4 14.2 C19.8 14.5 19.9 15.2 20.1 15.7 L20.1 15.7 C21.8 16.2 21.6 17.6 20.0 18.0 L20.0 18.0 C19.2 19.8 17.9 19.8 17.1 18.0 L17.1 18.0 C16.6 17.9 16.0 18.1 15.5 17.9 C13.4 17.3 13.6 15.6 15.0 14.5 L15.0 14.5 C14.5 14.4 13.9 14.6 13.5 14.3 C13.2 14.0 13.2 13.4 13.0 13.0 L13.0 13.0 C12.9 13.5 12.9 14.2 12.6 14.5 C12.2 14.9 11.6 14.9 11.1 15.1 L11.1 15.1 C11.5 15.6 12.0 16.0 12.1 16.6 C12.5 19.4 10.0 19.1 8.5 18.1 L8.5 18.1 C7.5 19.8 6.3 19.8 5.4 18.0 L5.4 18.0 C3.9 17.6 3.7 16.2 5.3 15.7 L5.3 15.7 C5.6 15.2 5.7 14.5 6.1 14.2 C6.6 13.9 7.2 14.0 7.8 13.8 L7.8 13.8 C8.2 13.3 8.5 12.7 9.0 12.4 C9.6 12.2 10.3 12.4 10.9 12.4 L10.9 12.4 C11.3 12.3 11.6 12.2 12.0 12.0 L12.0 12.0" fill="none" filling="0" stroke="black" stroke-opacity="1.0" stroke-width=".3"/><path d="M7.8 12.0 L7.8 12.0 C8.1 12.2 8.4 12.3 8.7 12.5 L8.7 12.5 C9.2 12.3 9.9 12.4 10.4 12.7 L10.4 12.7 C10.7 12.3 11.5 12.4 12.0 12.7 L12.0 12.7 C12.4 12.4 13.2 12.3 13.6 12.7 L13.6 12.7 C14.0 12.4 14.7 12.4 15.2 12.7 L15.2 12.7 C15.6 12.4 16.4 12.4 16.9 12.7 L16.9 12.7 C17.4 12.4 18.1 12.4 18.6 12.7 L18.6 12.7 C19.0 12.4 19.8 12.4 20.2 12.7 L20.2 12.7 C20.6 12.4 21.3 12.4 21.8 12.7 L21.8 12.7 C22.2 12.4 23.0 12.4 23.5 12.7 L23.5 12.7 C23.9 12.4 24.8 12.4 25.2 12.7 L25.2 12.7 C25.5 12.4 26.3 12.4 26.8 12.7 L26.8 12.7 C27.3 12.4 28.1 12.4 28.5 12.7 L28.5 12.7 C28.9 12.4 29.6 12.4 30.1 12.7 L30.1 12.7 C2.5 12.4 3.3 12.4 3.8 12.7 L3.8 12.7 C4.2 12.4 5.0 12.4 5.5 12.7 L5.5 12.7 C6.1 12.4 6.9 12.4 7.4 12.7 L7.4 12.7 C7.6 12.4 7.7 12.2 7.8 12.0 L7.8 12.0" fill="none" filling="0" stroke="black" stroke-opacity="1.0" stroke-width=".3"/><path d="M8.0 12.8 L8.0 12.8 C8.8 13.1 9.5 13.9 9.9 14.7 L9.9 14.7 C10.5 14.7 11.2 15.0 11.7 15.4 L11.7 15.4 C11.8 15.3 11.8 15.2 11.8 15.1 L11.8 15.1 C12.3 17.1 12.1 18.1 10.1 18.8 L10.1 18.8 C9.5 18.3 8.8 18.0 8.2 17.7 L8.2 17.7 C7.8 18.1 7.0 18.2 6.4 18.0 L6.4 18.0 C5.9 18.3 5.2 18.3 4.6 18.1 L4.6 18.1 C4.6 17.9 4.6 17.7 4.6 17.5 L4.6"/></svg>