<svg xmlns="http://www.w3.org/2000/svg" height="200px" viewBox="0.0 0.0 24.0 24.0" width="200px"><path d="M12.0 12.0 L12.0 12.0 C14.0 12.3 15.8 12.8 16.7 14.9 C17.4 16.5 17.1 18.3 16.3 19.6 C15.4 21.0 13.9 22.0 12.2 22.0 C10.5 22.0 8.9 21.0 8.0 19.6 C7.1 18.3 6.8 16.5 7.5 14.9 C8.5 12.8 10.1 12.3 12.0 12.0 L12.0 12.0" fill="none" filling="0" stroke="black" stroke-opacity="1.0" stroke-width=".3"/><path d="M19.2 23.5 L19.2 23.5 C19.5 24.5 20.7 25.1 20.6 26.2 C20.4 27.5 19.1 28.0 17.6 28.0 C16.1 28.1 14.4 27.8 13.5 27.7 C12.5 27.6 11.1 27.8 10.1 27.3 C9.0 26.9 8.9 26.3 8.0 25.7 C6.8 25.0 6.3 25.0 6.0 23.8 C5.8 23.3 5.9 22.7 5.9 22.1 C5.9 19.6 5.4 17.4 6.1 14.9 C6.6 13.2 7.6 11.8 9.0 10.9 C10.3 10.1 11.9 9.8 13.6 10.0 C15.3 10.2 16.7 11.0 17.6 12.1 C18.5 13.3 19.0 14.9 19.1 16.6 C19.2 18.3 18.9 20.0 18.4 21.5 C17.9 22.7 17.2 24.4 15.7 24.7 C14.3 25.0 13.0 24.7 11.8 24.7 C10.6 24.7 9.4 24.9 8.5 26.1 L8.5 26.1 C9.3 26.5 9.8 26.8 10.6 27.1 C12.3 27.6 14.6 27.1 16.2 26.5 C17.4 26.1 18.0 24.4 19.2 23.5 L19.2 23.5" fill="none" filling="0" stroke="black" stroke-opacity="1.0" stroke-width=".3"/></svg>