<svg xmlns="http://www.w3.org/2000/svg" height="200px" viewBox="0.0 0.0 24.0 24.0" width="200px"><path d="M12.0 2.0 L12.0 2.0 C14.0 3.0 16.0 5.0 16.0 8.0" fill="none" filling="0" stroke="black" stroke-opacity="1.0" stroke-width=".3"/><path d="M12.0 12.0 L12.0 12.0 C14.1 12.3 15.8 12.8 16.9 14.8 C17.9 16.6 17.7 18.7 16.7 20.3 C15.7 21.9 14.0 23.0 12.0 23.0 C10.0 23.0 8.3 21.9 7.3 20.3 C6.3 18.7 6.0 16.6 7.0 14.8 C8.1 12.8 9.9 12.3 12.0 12.0 L12.0 12.0" fill="none" filling="0" stroke="black" stroke-opacity="1.0" stroke-width=".3"/><path d="M12.0 13.8 L12.0 13.8 C14.0 14.1 15.6 14.5 16.3 16.6 C16.7 17.9 16.4 19.3 15.7 20.4 C15.0 21.5 13.8 22.2 12.3 22.2 C10.9 22.2 9.6 21.5 8.8 20.4 C8.1 19.3 7.8 17.9 8.2 16.6 C8.9 14.6 10.3 14.1 12.0 13.8 L12.0 13.8" fill="none" filling="0" stroke="black" stroke-opacity="1.0" stroke-width=".3"/></svg>