<svg xmlns="http://www.w3.org/2000/svg" height="200px" viewBox="0.0 0.0 24.0 24.0" width="200px"><path d="M3.0 12.0 L21.0 12.0 L21.0 13.2 L19.5 13.2 L19.5 17.4 L19.5 21.6 L21.0 21.6 L21.0 22.8 L15.0 22.8 L15.0 21.6 L16.5 21.6 L16.5 18.0 L12.0 18.0 L7.6 18.0 L7.6 21.6 L9.1 21.6 L9.1 22.8 L3.0 22.8 L3.0 21.6 L4.6 21.6 L4.6 17.4 L4.6 13.2 L3.0 13.2 L3.0 12.0" fill="none" filling="0" stroke="black" stroke-opacity="1.0" stroke-width=".3"/><path d="M7.6 12.0 L12.0 12.0 L16.5 12.0 L16.5 13.2 L12.0 13.2 L7.6 13.2 L7.6 12.0" fill="none" filling="0" stroke="black" stroke-opacity="1.0" stroke-width=".3"/></svg>