<svg xmlns="http://www.w3.org/2000/svg" height="200px" viewBox="0.0 0.0 24.0 24.0" width="200px"><path d="M11.5 8.3 L11.5 8.3 C12.9 9.0 13.6 10.1 13.7 11.2 C13.8 12.4 13.4 13.7 12.5 14.9 L12.5 14.9 C11.3 14.1 10.3 12.8 10.1 11.5 C10.0 10.3 10.6 9.1 11.5 8.3 L11.5 8.3" fill="none" filling="0" stroke="black" stroke-opacity="1.0" stroke-width=".3"/><path d="M8.5 9.4 L8.5 9.4 C8.7 9.5 8.9 9.6 9.0 9.7 L9.0 9.7 C8.7 10.2 8.2 10.6 8.2 11.1 C8.1 11.7 8.6 12.3 8.8 12.8 L8.8 12.8 C8.5 13.3 8.1 13.9 8.1 14.5 C8.1 15.2 8.5 15.8 8.8 16.4 L8.8 16.4 C8.1 17.4 7.6 18.6 7.6 19.9 L7.6 19.9 C5.5 18.3 5.6 16.3 6.3 14.3 C7.1 12.4 8.7 10.4 10.1 9.1 L10.1 9.1 C10.8 9.0 11.5 9.0 12.1 9.2 L12.1 9.2 C12.5 9.6 12.9 10.0 13.4 10.4 L13.4 10.4 C13.1 11.7 13.0 12.9 13.6 14.1 C14.4 15.9 16.8 16.2 16.8 18.4 C16.8 20.6 13.7 22.0 12.0 21.1 C10.5 20.4 9.4 18.9 8.9 17.4 C8.4 15.8 8.6 14.1 9.6 12.7 L9.6 12.7 C8.8 11.6 8.0 10.4 8.5 9.4 L8.5 9.4" fill="none" filling="0" stroke="black" stroke-opacity="1.0" stroke-width=".3"/><path d="M10.2 13.8 L10.2 13.8 C10.9 13.8 11.6 13.9 12.3 13.9 L12.3 13.9 C11.9 14.4 11.4 14.8 11.0 15.2 L11.0 15.2 C10.7 14.9 10.5 14.4 10.2 13.9 L10.2 13.8" fill="none" filling="0" stroke="black" stroke-opacity="1.0" stroke-width=".3"/><path d="M10.3 16.7 L10.3 16.7 C11.0 16.9 11.7 16.9 12.4 17.0 L12.4 17.0 C12.4 17.1 12.5 17.2 12.5 17.4 L12.5 17.4 C11.7 17.3 11.0 17.1 10.3 16.7 L10.3 16.7" fill="none" filling="0" stroke="black" stroke-opacity="1.0" stroke-width=".3"/><path d="M12.8 16.9 L12.8 16.9 C13.2 17.3 13.5 17.7 13.8 18.2 L13.8 18.2 C13.0 17.9 12.2 17.6 11.4 17.4 L11.4 17.4 C11.8 17.2 12.3 17.1 12.8 16.9 L12.8 16.9" fill="none" filling="0" stroke="black" stroke-opacity="1.0" stroke-width=".3"/><path d="M15.0 18.7 L15.0 18.7 C15.0 18.8 15.1 18.9 15.1 19.1 L15.1 19.1 C15.0 19.1 14.9 19.1 14.8 19.1 L14.8 19.1 C14.8 19.0 14.8 18.9 14.8 18.8 L14.8 18.8 C14.8 18.8 14.9 18.7 15.0 18.7 L15.0 18.7" fill="none" filling="0" stroke="black" stroke-opacity="1.0" stroke-width=".3"/><path d="M15.0 19.8 L15.0 19.8 C14.8 20.1 14.6 20.4 14.4 20.7 L14.4 20.7 C14.3 20.6 14.2 20.5 14.1 20.4 L14.1 20.4 C14.4 20.2 14.7 20.0 15.0 19.8 L15.0 19.8" fill="none" filling="0" stroke="black" stroke-opacity="1.0" stroke-width=".3"/></svg>