<svg xmlns="http://www.w3.org/2000/svg" height="200px" viewBox="0.0 0.0 24.0 24.0" width="200px"><path d="M13.4 14.3 L13.4 14.3 C12.8 15.2 12.7 16.2 12.4 17.4 C12.3 17.9 12.1 18.4 12.0 18.9 C11.5 21.1 13.1 21.0 14.6 20.2 C16.2 19.4 17.8 17.9 18.1 17.2 C18.8 15.8 18.1 14.0 16.5 13.5 C14.9 13.0 13.5 14.0 12.4 15.5 C11.3 16.9 10.5 18.8 10.1 20.0 C9.8 20.8 9.8 21.8 9.4 22.5 C9.3 22.7 9.0 23.1 8.9 22.9 C8.0 21.8 9.8 19.1 10.1 18.2 C10.7 16.5 11.4 14.8 11.7 13.0 L11.7 13.0 C12.3 12.9 13.0 12.7 13.6 12.5 L13.6 12.5 C13.4 13.1 13.4 13.7 13.4 14.3 L13.4 14.3" fill="none" filling="0" stroke="black" stroke-opacity="1.0" stroke-width=".3"/></svg>