<svg xmlns="http://www.w3.org/2000/svg" height="200px" viewBox="0.0 0.0 24.0 24.0" width="200px"><path d="M9.7 13.7 L9.7 13.7 C10.8 12.3 12.3 10.8 13.9 10.1 C15.6 9.4 17.3 9.4 18.9 11.0 C19.2 11.3 20.2 12.6 20.2 13.1 C20.2 13.5 19.6 14.0 19.1 13.9 C17.8 13.6 18.1 12.0 16.8 11.8 C15.4 11.6 14.2 12.5 13.2 13.6 C12.3 14.8 11.5 16.3 11.0 17.3 L11.0 17.3 C11.4 17.4 11.8 17.5 12.2 17.6 L12.5 17.6 C13.3 17.4 14.1 17.3 15.0 17.1 L15.0 17.1 C15.5 16.4 16.0 15.6 16.5 14.9 L16.8 14.9 C16.9 15.3 17.1 15.7 17.2 16.1 L17.2 16.1 C16.9 16.7 16.7 17.4 16.3 17.9 C15.1 19.1 13.0 18.5 11.4 18.4 L11.0 18.4 C10.6 18.2 10.3 18.1 9.9 18.0 L9.9 18.0 C9.7 18.2 9.5 18.4 9.3 18.7 L8.7 19.7 C8.4 20.4 8.1 21.0 7.8 21.6 L7.8 21.6 C9.7 21.3 11.4 20.9 13.3 20.5 L14.7 20.2 C14.9 20.1 15.1 20.1 15.3 20.0 L15.3 20.0 C15.8 19.0 16.6 18.4 17.5 18.0 L17.5 18.0 C17.5 17.9 17.6 17.8 17.6 17.8 L17.7 17.8 C18.2 18.0 18.6 18.2 19.1 18.5 L19.1 18.5 C19.5 18.9 20.0 19.3 20.5 19.7 L20.5 19.7 C20.0 20.4 19.5 21.3 18.8 21.9 L18.8 21.9 C17.9 21.9 17.1 22.3 16.3 22.5 L16.3 22.5 C16.1 22.7 15.9 22.9 15.7 23.1 L15.4 23.1 C15.4 23.1 15.3 23.1 15.3 23.1 L15.3 23.1 C15.3 23.1 15.2 23.1 15.2 23.1 L15.2 23.1 C15.2 23.1 15.2 23.1 15.2 23.1 L15.2 23.1 C15.2 23.1 15.2 23.1 15.2 23.1 L15.2 23.1 C15.2 23.1 15.2 23.1 15.2 23.1 L15.2 23.1 C15.2 23.1 15.2 23.1 15.2 23.1 L15.2 23.1 C15.2 23.1 15.2 23.1 15.2 23.1 L15.2 23.1 C15.2 23.1 15.2 23.1 15.2 23.1 L15.2 23.1 C15.2 23.1 15.2 23.1 15.2 23.1 L15.2 23.1 C15.2 23.1 15.2 23.1 15.2 23.1 L15.2 23.1 C15.2 23.1 15.2 23.1 15.2 23.1 L15.2 23.1 C15.2 23.1 15.2 23.1 15.2 23.1 L15.2 23.1 C15.2 23.1 15.2 23.1 15.2 23.1 L15.2 23.1 C15.2 23.1 15.2 23.1 15.2 23.1 L15.2 23.1 C15.2 23.1 15.2 23.1 15.2 23.1 L15.2 23.1 C15.2 23.1 15.2 23.1 15.2 23.1 L15.2 23.1 C15.2 23.1 15.2 23.1 15.2 23.1 L15.2 23.1 C15.2 23.1 15.2 23.1 15.2 23.1 L15.2 23.1 C15.2 23.1 15.2 23.1 15.2 23.1 L15.2 23.1 C15.2 23.1 15.2 23.1 15.2 23.1 L15.2 23.1 C15.2 23.1 15.2 23.1 15.2 23.1 L15.2 23.1 C15.2 23.1 15.2 23.1 15.2 23.1 L15.2 23.1 C15.2 23.1 15.2 23.1 15.2 23.1 L15.2 23.1 C15.2 23.1 15.2 23.1 15.2 23.1 L15.2 23.1 C15.2 23.1 15.2 23.1 15.2 23.1 L15.2 23.1 C15.2 23.1 15.2 23.1 15.2 23.1 L15.2 23.1 C15.2 23.1 15.2 23.1 15.2 23.1 L15.2 23.1 C15.2 23.1 15.2 23.1 15.2 23.1 L15.2 23.1 C15.2 23.1 15.2 23.1 15.2 23.1 L15.2 23.1 C15.2 23.1 15.2 23.1 15.2 23.1 L15.2 23.1 C15.2 23.1 15.2 23.1 15.2 23.1 L15.2 23.1 C15.2 23.1 15.2 23.1 15.2 23.1 L15.2 23.1 C15.2 23.1 15.2 23.1 15.2 23.1 L15.2 23.1 C15.2 23.1 15.2 23.1 15.2 23.1 L15.2 23.1 C15.2 23.1 15.2 23.1 15.2 23.1 L15.2 23.1 C15.2 23.1 15.2 23.1 15.2 23.1 L15.2 23.1 C15.2 23.1 15.2 23.1 15.2 23.1 L15.2 23.1 C15.2 23.1 15.2 23.1 15.2 23.1 L15.2 23.1 C15.2 23.1 15.2 23.1 15.2 23.1 L15.2 23.1 C15.2 23.1 15.2 23.1 15.2 23.1 L15.2 23.1 C15.2 23.1 15.2 23.1 15.2 23.1 L15.2 23.1 C15.2 23.1 15.2 23.1 15.2 23.1 L15.2 23.1 C15.2 23.1 15.2 23.1 15.2 23.1 L15.2 23.1 C15.2 23.1 15.2 23.1 15.2 23.1 L15.2 23.1 C15.2 23.1 15.2 23.1 15.2 23.1 L15.2 23.1 C15.2 23.1 15.2 23.1 15.2 23.1 L15.2 23.1 C15.2 23.1 15.2 23.1 15.2 23.1 L15.2 23.1 C15.2 23.1 15.2 23.1 15.2 23.1 L15.2 23.1 C15.2 23.1 15.2 23.1 15.2 23.1 L15.2 23.1 C15.2 23.1 15.2 23.1 15.2 23.1 L15.2 23.1 C15.2 23.1 15.2 23.1 15.2 23.1 L15.2 23.1 C15.2 23.1 15.2 23.1 15.2 23.1 L15.2 23.1 C15.2 23.1 15.2 23.1 15.2 23.1 L15.2 23.1 C15.2 23.1 15.2 23.1 15.2 23.1 L15.2 23.1 C15.2 23.1 15.2 23.1 15.2 23.1 L15.2 23.1 C15.2 23.1 15.2 23.1 15.2 23.1 L15.2 23.1 C15.2 23.1 15.2 23.1 15.2 23.1 L15.2 23.1 C15.2 23.1 15.2 23.1 15.2 23.1 L15.2 23.1 C15.2 23.1 15.2 23.1 15.2 23.1 L15.2 23.1 C15.2 23.1 15.2 23.1 15.2 23.1 L15.2 23.1 C15.2 23.1 15.2 23.1 15.2 23.1 L15.2 23.1 C15.2 23.1 15.2 23.1 15.2 23.1 L15.2 23.1 C15.2 23.1 15.2 23.1 15.2 23.1 L15.2 23.1 C15.2 23.1 15.2 23.1 15.2 23.1 L15.2 23.1 C15.2 23.1 15.2 23.1 15.2 23.1 L15.2 23.1 C15.2 23.1 15.2 23.1 15.2 23.1 L15.2 23.1 C15.2 23.1 15.2 23.1 15.2 23.1 L15.2 23.1 C15.2 23.1 15.2 23.1 15.2 23.1 L15.2 23.1 C15.2 23.1 15.2 23.1 15.2 23.1 L15.2 23.1 C15.2 23.1 15.2 23.1 15.2 23.1 L15.2 23.1 C15.2 23.1 15.2 23.1 15.2 23.1 L15.2 23.1 C15.2 23.1 15.2 23.1 15.2 23.1 L15.2 23.1 C15.2 23.1 15.2 23.1 15.2 23.1 L15.2 23.1 C15.2 23.1 15.2 23.1 15.2 23.1 L15.2 23.1 C15.2 23.1 15.2 23.1 15.2 23.1 L15.2 23.1 C15.2 23.1 15.2 23.1 15.2 23.1 L15.2"/></svg>