<svg xmlns="http://www.w3.org/2000/svg" height="200px" viewBox="0.0 0.0 24.0 24.0" width="200px"><path d="M10.8 6.8 L10.8 6.8 C10.8 7.4 10.8 7.4 10.8 6.8 L10.8 6.8" fill="none" filling="0" stroke="black" stroke-opacity="1.0" stroke-width=".3"/><path d="M10.8 7.6 L10.8 7.6 C10.8 8.2 10.8 8.2 10.8 7.6 L10.8 7.6" fill="none" filling="0" stroke="black" stroke-opacity="1.0" stroke-width=".3"/><path d="M10.8 8.5 L10.8 8.5 C10.8 9.1 10.8 9.1 10.8 8.5 L10.8 8.5" fill="none" filling="0" stroke="black" stroke-opacity="1.0" stroke-width=".3"/><path d="M10.8 9.4 L10.8 9.4 C10.8 9.9 10.8 9.9 10.8 9.4 L10.8 9.4" fill="none" filling="0" stroke="black" stroke-opacity="1.0" stroke-width=".3"/><path d="M10.8 10.2 L10.8 10.2 C10.8 10.8 10.8 10.8 10.8 10.2 L10.8 10.2" fill="none" filling="0" stroke="black" stroke-opacity="1.0" stroke-width=".3"/><path d="M10.8 11.1 L10.8 11.1 C10.8 11.6 10.8 11.6 10.8 11.1 L10.8 11.1" fill="none" filling="0" stroke="black" stroke-opacity="1.0" stroke-width=".3"/><path d="M10.8 11.9 L10.8 11.9 C10.8 12.4 10.8 12.4 10.8 11.9 L10.8 11.9" fill="none" filling="0" stroke="black" stroke-opacity="1.0" stroke-width=".3"/><path d="M10.8 12.8 L10.8 12.8 C10.8 13.3 10.8 13.3 10.8 12.8 L10.8 12.8" fill="none" filling="0" stroke="black" stroke-opacity="1.0" stroke-width=".3"/><path d="M10.8 13.6 L10.8 13.6 C10.8 14.2 10.8 14.2 10.8 13.6 L10.8 13.6" fill="none" filling="0" stroke="black" stroke-opacity="1.0" stroke-width=".3"/><path d="M10.8 14.4 L10.8 14.4 C10.8 14.9 10.8 14.9 10.8 14.4 L10.8 14.4" fill="none" filling="0" stroke="black" stroke-opacity="1.0" stroke-width=".3"/><path d="M10.8 15.1 L10.8 15.1 C10.8 15.7 10.8 15.7 10.8 15.1 L10.8 15.1" fill="none" filling="0" stroke="black" stroke-opacity="1.0" stroke-width=".3"/><path d="M10.8 16.0 L10.8 16.0 C10.8 16.5 10.8 16.5 10.8 16.0 L10.8 16.0" fill="none" filling="0" stroke="black" stroke-opacity="1.0" stroke-width=".3"/></svg>