<svg xmlns="http://www.w3.org/2000/svg" height="200px" viewBox="0.0 0.0 24.0 24.0" width="200px"><path d="M12.2 12.5 L12.2 12.5 C13.5 12.6 14.0 12.5 15.2 13.1 C16.3 13.7 17.0 15.0 17.3 16.4 C17.6 17.8 17.4 19.3 16.7 20.3 C15.8 21.8 14.2 22.8 12.4 23.1 C10.6 23.4 8.8 22.9 7.5 21.5 C6.6 20.6 6.3 19.3 6.3 18.0 C6.2 16.7 6.5 15.3 6.8 14.2 C7.4 12.6 8.3 11.0 9.6 9.9 C10.8 8.8 12.4 8.0 14.2 8.0 C15.8 8.0 16.5 8.6 17.7 9.6 L15.7 11.6 C15.0 11.2 14.7 10.8 13.9 10.4 C11.4 9.3 9.7 12.0 9.1 14.0 L9.1 14.0 C10.2 13.3 11.0 12.8 12.2 12.5 L12.2 12.5" fill="none" filling="0" stroke="black" stroke-opacity="1.0" stroke-width=".3"/><path d="M12.3 21.8 L12.3 21.8 C10.7 21.5 9.7 20.7 9.2 19.6 C8.8 18.4 8.9 17.1 9.5 15.5 C10.0 14.1 11.7 12.3 13.4 13.6 C14.5 14.5 15.1 16.0 15.2 17.6 C15.3 19.1 14.8 20.7 13.8 21.6 C13.4 21.9 12.8 21.8 12.3 21.8 L12.3 21.8" fill="none" filling="0" stroke="black" stroke-opacity="1.0" stroke-width=".3"/></svg>