<svg xmlns="http://www.w3.org/2000/svg" height="200px" viewBox="0.0 0.0 24.0 24.0" width="200px"><path d="M13.4 14.5 L13.4 14.5 C13.1 15.0 12.9 15.6 12.5 16.0 C10.9 17.7 8.8 16.6 9.0 14.4 C9.1 12.6 10.6 10.8 12.5 11.8 C13.0 12.1 13.2 12.7 13.4 13.2 L13.4 14.5" fill="none" filling="0" stroke="black" stroke-opacity="1.0" stroke-width=".3"/><path d="M13.0 17.7 L13.0 17.7 C11.3 18.6 9.7 18.6 8.6 17.9 C7.4 17.2 6.6 15.7 6.6 13.9 C6.6 12.8 6.9 11.6 7.5 10.6 C8.5 9.2 10.4 8.6 12.2 8.9 C14.0 9.1 15.8 10.1 16.6 11.7 C17.4 13.3 17.2 15.3 16.9 17.0 C16.5 18.7 16.0 20.6 15.0 22.0 C14.0 23.3 12.6 24.1 10.6 24.0 C9.8 24.0 8.3 23.9 7.7 23.1 C7.3 22.5 7.4 21.8 8.1 21.6 C9.4 21.3 11.8 22.4 12.9 21.5 C14.1 20.5 14.1 19.0 14.2 17.7 L13.0 17.7" fill="none" filling="0" stroke="black" stroke-opacity="1.0" stroke-width=".3"/></svg>