<svg xmlns="http://www.w3.org/2000/svg" height="200px" viewBox="0.0 0.0 24.0 24.0" width="200px"><path d="M14.2 9.9 L14.2 9.9 C13.3 11.8 13.3 8.1 14.2 9.9 L14.2 9.9" fill="none" filling="0" stroke="black" stroke-opacity="1.0" stroke-width=".3"/><path d="M14.7 12.0 L14.7 12.0 C14.8 13.8 14.8 15.7 14.9 17.6 C14.9 19.5 14.9 21.4 15.0 23.3 L15.0 23.3 C15.3 23.3 15.6 23.3 15.9 23.3 C17.8 23.5 13.7 24.2 14.7 23.4 L14.7 23.4 C14.7 23.4 14.7 23.4 14.7 23.4 L14.7 23.4 C14.7 23.4 14.7 23.4 14.7 23.4 L14.7 23.4 C14.7 23.4 14.7 23.4 14.7 23.3 L14.7 23.3 C14.7 23.3 14.7 23.3 14.7 23.3 L14.7 23.3 C14.6 23.3 14.6 23.3 14.6 23.3 L14.6 23.3 C14.6 23.3 14.6 23.3 14.6 23.3 L14.6 23.3 C14.6 23.3 14.6 23.3 14.6 23.3 L14.6 23.3 C14.4 23.3 14.2 23.3 14.0 23.3 L14.0 23.3 C13.8 23.3 13.7 23.1 13.8 22.8 L13.8 22.8 C13.1 22.5 12.2 22.5 11.4 22.5 L11.4 22.5 C11.4 22.8 11.2 23.0 11.0 23.0 L11.0 23.0 C11.0 23.0 11.0 23.0 11.0 23.0 L11.0 23.0 C10.8 23.0 10.7 23.0 10.6 22.8 L10.6 22.8 C10.6 22.7 10.6 22.7 10.5 22.7 L10.5 22.7 C10.3 22.8 10.2 22.8 10.0 22.8 L10.0 22.8 C9.8 22.8 9.7 22.7 9.5 22.6 L9.5 22.6 C9.5 22.6 9.5 22.6 9.5 22.6 L9.5 22.6 C9.5 22.6 9.5 22.5 9.5 22.5 L9.5 22.5 C9.5 22.5 9.5 22.5 9.5 22.5 L9.5 22.5 C9.5 22.5 9.5 22.5 9.5 22.5 L9.5 22.5 C9.5 22.5 9.5 22.5 9.5 22.5 L9.5 22.5 C9.5 22.5 9.5 22.5 9.5 22.5 L9.5 22.5 C9.5 22.5 9.5 22.5 9.5 22.5 L9.5 22.5 C9.5 22.5 9.5 22.5 9.5 22.5 L9.5 22.5 C9.5 22.5 9.5 22.5 9.5 22.5 L9.5 22.5 C9.5 22.5 9.5 22.5 9.5 22.5 L9.5 22.5 C9.5 22.5 9.5 22.5 9.5 22.5 L9.5 22.5 C9.6 22.5 9.6 22.5 9.6 22.5 L9.6 22.5 C9.6 22.5 9.6 22.5 9.6 22.5 L9.6 22.5 C9.6 22.5 9.6 22.5 9.6 22.5 L9.6 22.5 C9.6 22.5 9.6 22.5 9.6 22.5 L9.6 22.5 C9.6 22.5 9.6 22.5 9.6 22.5 L9.6 22.5 C9.7 22.5 9.7 22.5 9.7 22.5 L9.7 22.5 C9.7 22.5 9.7 22.5 9.7 22.5 L9.7 22.5 C9.7 22.5 9.7 22.5 9.7 22.5 L9.7 22.5 C9.7 22.5 9.7 22.5 9.7 22.5 L9.7 22.5 C9.7 22.5 9.7 22.5 9.7 22.5 L9.7 22.5 C9.7 22.5 9.7 22.5 9.7 22.5 L9.7 22.5 C9.7 22.5 9.7 22.5 9.7 22.5 L9.7 22.5 C9.7 22.5 9.7 22.5 9.7 22.5 L9.7 22.5 C9.7 22.5 9.7 22.5 9.7 22.5 L9.7 22.5 C9.7 22.5 9.7 22.5 9.7 22.5 L9.7 22.5 C9.7 22.5 9.7 22.5 9.7 22.5 L9.7 22.5 C9.7 22.5 9.7 22.5 9.7 22.5 L9.7 22.5 C9.7 22.5 9.7 22.5 9.7 22.5 L9.7 22.5 C9.7 22.5 9.7 22.5 9.7 22.5 L9.7 22.5 C9.7 22.5 9.7 22.5 9.7 22.5 L9.7 22.5 C9.7 22.5 9.7 22.5 9.7 22.5 L9.7 22.5 C9.7 22.5 9.7 22.5 9.7 22.5 L9.7 22.5 C9.7 22.5 9.7 22.5 9.7 22.5 L9.7 22.5 C9.7 22.5 9.7 22.5 9.7 22.5 L9.7 22.5 C9.7 22.5 9.7 22.5 9.7 22.5 L9.7 22.5 C9.7 22.5 9.7 22.5 9.7 22.5 L9.7 22.5 C9.7 22.5 9.7 22.5 9.7 22.5 L9.7 22.5 C9.7 22.5 9.7 22.5 9.7 22.5 L9.7 22.5 C9.7 22.5 9.7 22.5 9.7 22.5 L9.7 22.5 C9.7 22.5 9.7 22.5 9.7 22.5 L9.7 22.5 C9.7 22.5 9.7 22.5 9.7 22.5 L9.7 22.5 C9.7 22.5 9.7 22.5 9.7 22.5 L9.7 22.5 C9.7 22.5 9.7 22.5 9.7 22.5 L9.7 22.5 C9.7 22.5 9.7 22.5 9.7 22.5 L9.7 22.5 C9.7 22.5 9.7 22.5 9.7 22.5 L9.7 22.5 C9.7 22.5 9.7 22.5 9.7 22.5 L9.7 22.5 C9.7 22.5 9.7 22.5 9.7 22.5 L9.7 22.5 C9.7 22.5 9.7 22.5 9.7 22.5 L9.7 22.5 C9.7 22.5 9.7 22.5 9.7 22.5 L9.7 22.5 C9.7 22.5 9.7 22.5 9.7 22.5 L9.7 22.5 C9.7 22.5 9.7 22.5 9.7 22.5 L9.7 22.5 C9.7 22.5 9.7 22.5 9.7 22.5 L9.7 22.5 C9.7 22.5 9.7 22.5 9.7 22.5 L9.7 22.5 C9.7 22.5 9.7 22.5 9.7 22.5 L9.7 22.5 C9.7 22.5 9.7 22.5 9.7 22.5 L9.7 22.5 C9.7 22.5 9.7 22.5 9.7 22.5 L9.7 22.5 C9.7 22.5 9.7 22.5 9.7 22.5 L9.7 22.5 C9.7 22.5 9.7 22.5 9.7 22.5 L9.7 22.5 C9.7 22.5 9.7 22.5 9.7 22.5 L9.7 22.5 C9.7 22.5 9.7 22.5 9.7 22.5 L9.7 22.5 C9.7 22.5 9.7 22.5 9.7 22.5 L9.7 22.5 C9.7 22.5 9.7 22.5 9.7 22.5 L9.7 22.5 C9.7 22.5 9.7 22.5 9.7 22.5 L9.7 22.5 C9.7 22.5 9.7 22.5 9.7 22.5 L9.7 22.5 C9.7 22.5 9.7 22.5 9.7 22.5 L9.7 22.5 C9.7 22.5 9.7 22.5 9.7 22.5 L9.7 22.5 C9.7 22.5 9.7 22.5 9.7 22.5 L9.7 22.5 C9.7 22.5 9.7 22.5 9.7 22.5 L9.7 22.5 C9.7 22.5 9.7 22.5 9.7 22.5 L9.7 22.5 C9.7 22.5 9.7 22.5 9.7 22.5 L9.7 22.5 C9.7 22.5 9.7 22.5 9.7 22.5 L9.7 22.5 C9.7 22.5 9.7 22.5 9.7 22.5 L9.7 22.5 C9.7 22.5 9.7 22.5 9.7 22.5 L9.7 22.5 C9.7 22.5 9.7 22.5 9.7 22.5 L9.7 22.5 C9.7 22.5 9.7 22.5 9.7 22.5"/></svg>