<svg xmlns="http://www.w3.org/2000/svg" height="200px" viewBox="0.0 0.0 24.0 24.0" width="200px"><path d="M9.9 10.9 L9.9 10.9 C10.1 10.3 10.0 9.7 10.4 9.3 C11.7 7.9 13.2 9.0 13.3 10.4 C13.3 11.6 12.9 13.0 12.3 14.3 C11.7 15.7 11.0 16.9 10.5 18.0 L10.5 18.0 C10.4 15.7 10.2 13.3 9.9 10.9 L9.9 10.9" fill="none" filling="0" stroke="black" stroke-opacity="1.0" stroke-width=".3"/><path d="M8.1 11.7 L8.1 11.7 C7.6 10.0 8.8 8.7 10.5 7.9 C12.2 7.2 14.3 7.2 15.5 8.1 C17.1 9.2 17.0 10.5 16.3 11.8 C15.7 13.2 14.5 14.5 13.9 15.5 C13.1 17.0 12.5 18.6 12.1 20.2 L11.9 20.9 C11.8 21.4 11.7 21.8 11.6 22.2 L11.6 22.2 C12.8 22.0 14.0 21.7 15.2 21.5 C16.4 21.3 17.6 21.1 18.9 21.0 L18.9 21.0 C18.8 21.8 18.7 22.6 18.6 23.4 L18.6 23.4 C16.5 23.7 14.4 23.9 12.3 24.2 C10.1 24.4 8.0 24.5 5.9 24.5 L5.9 24.5 C6.2 23.9 6.3 23.2 6.4 22.6 L6.4 22.6 C8.0 22.6 9.5 22.6 11.0 22.6 L11.0 22.6 C11.2 22.1 11.3 21.5 11.5 21.0 L11.5 21.0 C11.9 19.5 12.4 18.1 13.1 16.7 C13.7 15.3 14.3 13.9 15.0 12.6 C15.7 11.2 16.8 9.1 15.0 8.0 C13.2 7.0 10.8 7.9 10.0 9.6 C9.6 10.6 9.9 11.7 10.0 12.8 C10.3 15.0 10.5 17.1 10.4 19.3 L10.4 19.3 C9.0 19.4 7.6 19.4 6.2 19.4 L6.2 19.4 C6.4 18.9 6.5 18.3 6.7 17.8 L6.7 17.8 C8.2 17.8 9.7 17.8 11.3 17.7 L11.3 17.7 C11.4 17.6 11.5 17.5 11.6 17.4 L11.6 17.4 C10.6 15.7 10.4 13.8 10.1 11.9 L10.1 11.9 C10.0 11.7 9.9 11.6 9.7 11.4 L9.7 11.4 C9.4 11.6 9.0 11.8 8.6 11.9 L8.1 11.7" fill="none" filling="0" stroke="black" stroke-opacity="1.0" stroke-width=".3"/><path d="M7.1 18.8 L7.1 18.8 C7.4 18.6 7.8 18.5 8.2 18.4 L8.2 18.4 C8.0 18.5 7.8 18.6 7.6 18.7 L7.1 18.8" fill="none" filling="0" stroke="black" stroke-opacity="1.0" stroke-width=".3"/><path d="M9.3 18.8 L9.3 18.8 C9.1 18.7 8.9 18.6 8.7 18.5 L8.7 18.5 C8.8 18.5 8.8 18.5 8.8 18.5 L8.8 18.5 C8.9 18.6 9.0 18.7 9.1 18.8 L9.3 18.8" fill="none" filling="0" stroke="black" stroke-opacity="1.0" stroke-width=".3"/><path d="M10.0 19.4 L10.0 19.4 C9.6 20.2 9.2 21.0 8.9 21.9 L8.9 21.9 C8.2 22.0 7.6 22.1 6.9 22.2 L6.9 22.2 C7.0 21.8 7.1 21.5 7.3 21.2 L7.3 21.2 C7.7 21.1 8.2 20.9 8.6 20.8 L8.6 20.8 C8.6 20.6 8.5 20.4 8.5 20.2 L8.5 20.2 C9.1 19.9 9.6 19.7 10.0 19.4 L10.0 19.4" fill="none" filling="0" stroke="black" stroke-opacity="1.0" stroke-width=".3"/><path d="M9.5 19.6 L9.5 19.6 C9.2 20.3 8.9 21.0 8.6 21.7 L8.6 21.7 C8.3 21.7 8.0 21.7 7.7 21.8 L7.7 21.8 C7.8 21.4 7.9 21.0 8.0 20.6 L8.0 20.6 C8.4 20.5 8.8 20.2 9.2 19.9 L9.5 19.6" fill="none" filling="0" stroke="black" stroke-opacity="1.0" stroke-width=".3"/><path d="M10.8 21.6 L10.8 21.6 C11.2 21.5 11.6 21.4 12.0 21.2 L12.0 21.2 C11.7 21.8 11.4 22.5 11.2 23.2 L11.2 23.2 C11.1 22.6 11.0 22.1 10.8 21.6 L10.8 21.6" fill="none" filling="0" stroke="black" stroke-opacity="1.0" stroke-width=".3"/></svg>