<svg xmlns="http://www.w3.org/2000/svg" height="200px" viewBox="0.0 0.0 24.0 24.0" width="200px"><path d="M7.7 13.1 L7.7 13.1 C8.4 13.1 9.2 13.2 10.0 13.2 L10.0 13.2 C10.3 11.9 10.4 11.1 11.2 10.0 C12.8 7.7 15.7 7.2 17.7 9.2 C18.3 9.8 18.3 11.2 17.2 11.4 C15.8 11.6 16.7 9.8 16.3 9.6 C14.4 8.4 12.8 9.9 12.1 11.5 C11.5 12.9 11.3 14.6 11.2 16.4 C11.1 18.2 11.3 20.0 11.4 21.5 L11.4 21.5 C12.0 21.5 12.7 21.6 13.3 21.6 C14.1 21.6 15.9 22.1 14.5 23.3 C13.4 24.3 9.7 24.0 8.3 23.9 C7.1 23.8 7.3 22.3 8.4 21.9 C8.9 21.7 9.9 21.6 10.5 21.6 L10.5 21.6 C10.4 20.0 10.3 18.4 10.2 16.7 C10.1 15.1 10.0 13.4 10.1 11.8 L10.1 11.8 C9.5 11.8 7.4 12.1 6.8 11.7 C5.8 11.0 6.8 10.1 7.5 9.9 L7.5 9.9 C7.5 9.9 7.5 9.9 7.5 9.9 L7.5 9.9 C7.5 9.9 7.5 9.9 7.5 9.9 L7.5 9.9 C8.0 8.8 8.4 8.6 9.6 8.7 L9.6 8.7 C10.0 7.3 11.0 6.2 12.2 5.7 C13.4 5.3 14.8 5.4 16.1 6.4 C16.9 7.1 17.6 8.4 16.5 9.3 C15.3 10.3 14.1 8.4 15.2 7.8 L15.2 7.8 C13.6 6.9 12.6 8.0 12.0 9.6 C11.5 11.1 11.4 13.0 11.3 14.0 L11.3 14.0 C12.4 13.9 13.5 13.8 14.6 13.7 L14.7 13.4 C14.8 13.0 14.7 12.5 14.9 12.2 C15.9 11.1 17.0 12.2 16.7 13.3 L16.7 13.3 C17.1 13.6 17.5 13.9 17.6 14.4 C18.1 16.7 14.0 15.6 13.4 15.6 C12.7 15.6 12.0 15.7 11.3 15.7 L11.3 15.7 C11.3 16.9 11.3 18.2 11.3 19.5 C11.3 20.7 11.3 22.0 11.3 23.3 L11.3 23.3 C11.3 23.4 11.2 23.5 11.1 23.6 L11.1 23.6 C10.8 23.7 10.4 23.8 10.1 23.7 L10.1 23.7 C10.0 23.7 10.0 23.6 9.9 23.6 L9.9 23.6 C9.8 23.6 9.8 23.5 9.7 23.5 L9.7 23.5 C9.7 23.5 9.7 23.5 9.7 23.5 L9.7 23.5 C9.7 23.5 9.7 23.5 9.7 23.5 L9.7 23.5 C9.7 23.5 9.7 23.5 9.7 23.5 L9.7 23.5 C9.7 23.5 9.7 23.5 9.7 23.5 L9.7 23.5 C9.7 23.5 9.7 23.5 9.7 23.5 L9.7 23.5 C9.7 23.5 9.7 23.5 9.7 23.5 L9.7 23.5 C9.7 23.5 9.7 23.5 9.7 23.5 L9.7 23.5 C9.6 23.5 9.6 23.5 9.6 23.5 L9.6 23.5 C9.6 23.5 9.6 23.5 9.6 23.5 L9.6 23.5 C9.6 23.5 9.6 23.5 9.6 23.5 L9.6 23.5 C9.6 23.5 9.6 23.5 9.6 23.5 L9.6 23.5 C9.6 23.5 9.6 23.5 9.6 23.5 L9.6 23.5 C9.6 23.5 9.6 23.5 9.6 23.5 L9.6 23.5 C9.6 23.5 9.6 23.5 9.6 23.5 L9.6 23.5 C9.6 23.5 9.6 23.5 9.6 23.5 L9.6 23.5 C9.6 23.5 9.6 23.5 9.6 23.5 L9.6 23.5 C9.6 23.5 9.5 23.5 9.5 23.5 L9.5 23.5 C9.5 23.5 9.5 23.5 9.5 23.5 L9.5 23.5 C9.5 23.5 9.5 23.5 9.5 23.5 L9.5 23.5 C9.5 23.5 9.5 23.5 9.5 23.5 L9.5 23.5 C9.5 23.5 9.5 23.5 9.5 23.5 L9.5 23.5 C9.5 23.5 9.5 23.5 9.5 23.5 L9.5 23.5 C9.5 23.5 9.5 23.5 9.5 23.5 L9.5 23.5 C9.5 23.5 9.5 23.5 9.5 23.5 L9.5 23.5 C9.5 23.5 9.5 23.5 9.5 23.5 L9.5 23.5 C9.5 23.5 9.5 23.5 9.5 23.5 L9.5 23.5 C9.5 23.5 9.5 23.5 9.5 23.5 L9.5 23.5 C9.5 23.5 9.5 23.5 9.5 23.5 L9.5 23.5 C9.5 23.5 9.5 23.5 9.5 23.5 L9.5 23.5 C9.5 23.5 9.5 23.5 9.5 23.5 L9.5 23.5 C9.5 23.5 9.5 23.5 9.5 23.5 L9.5 23.5 C9.5 23.5 9.5 23.5 9.5 23.5 L9.5 23.5 C9.5 23.5 9.5 23.5 9.5 23.5 L9.5 23.5 C9.5 23.5 9.5 23.5 9.5 23.5 L9.5 23.5 C9.5 23.5 9.5 23.5 9.5 23.5 L9.5 23.5 C9.5 23.5 9.5 23.5 9.5 23.5 L9.5 23.5 C9.5 23.5 9.5 23.5 9.5 23.5 L9.5 23.5 C9.5 23.5 9.5 23.5 9.5 23.5 L9.5 23.5 C9.5 23.5 9.5 23.5 9.5 23.5 L9.5 23.5 C9.5 23.5 9.5 23.5 9.5 23.5 L9.5 23.5 C9.5 23.5 9.5 23.5 9.5 23.5 L9.5 23.5 C9.5 23.5 9.5 23.5 9.5 23.5 L9.5 23.5 C9.5 23.5 9.5 23.5 9.5 23.5 L9.5 23.5 C9.5 23.5 9.5 23.5 9.5 23.5 L9.5 23.5 C9.5 23.5 9.5 23.5 9.5 23.5 L9.5 23.5 C9.5 23.5 9.5 23.5 9.5 23.5 L9.5 23.5 C9.5 23.5 9.5 23.5 9.5 23.5 L9.5 23.5 C9.5 23.5 9.5 23.5 9.5 23.5 L9.5 23.5 C9.5 23.5 9.5 23.5 9.5 23.5 L9.5 23.5 C9.5 23.5 9.5 23.5 9.5 23.5 L9.5 23.5 C9.5 23.5 9.5 23.5 9.5 23.5 L9.5 23.5 C9.5 23.5 9.5 23.5 9.5 23.5 L9.5 23.5 C9.5 23.5 9.5 23.5 9.5 23.5 L9.5 23.5 C9.5 23.5 9.5 23.5 9.5 23.5 L9.5 23.5 C9.5 23.5 9.5 23.5 9.5 23.5 L9.5 23.5 C9.5 23.5 9.5 23.5 9.5 23.5 L9.5 23.5 C9.5 23.5 9.5 23.5 9.5 23.5 L9.5 23.5 C9.5 23.5 9.5 23.5 9.5 23.5 L9.5 23.5 C9.5 23.5 9.5 23.5 9.5 23.5 L9.5 23.5 C9.5 23.5 9.5 23.5 9.5 23.5 L9.5 23.5 C9.5 23.5 9.5 23.5 9.5 23.5 L9.5 23.5 C9.5 23.5 9.5 23.5 9.5 23.5 L9.5 23.5 C9.5 23.5 9.5 23.5 9.5 23.5 L9.5 23.5 C9.5 23.5 9.5 23.5 9.5 23.5 L9.5 23.5 C9.5 23.5 9.5 23.5 9.5 23.5 L9.5 23.5 C9.5 23.5 9.5 23.5 9.5 23.5 L9.5 23.5 C9.5 23.5 9.5 23.5 9.5 23.5 L"/></svg>