<svg xmlns="http://www.w3.org/2000/svg" height="200px" viewBox="0.0 0.0 24.0 24.0" width="200px"><path d="M7.9 11.3 L7.9 11.3 C7.4 10.9 6.7 10.5 6.3 10.0 C6.0 9.5 6.0 8.7 6.5 8.3 C7.0 7.9 7.6 8.4 8.1 8.6 C9.3 9.0 10.4 8.9 11.6 8.8 L12.1 8.8 C12.3 8.8 12.6 8.8 12.9 8.8 L13.0 8.8 C14.8 9.1 17.3 10.4 15.1 12.4 C14.5 13.0 12.8 13.3 12.0 13.4 L11.2 13.6 C11.1 13.6 11.0 13.6 10.9 13.6 L10.8 13.6 C10.6 13.6 10.4 13.6 10.2 13.7 L10.1 13.7 C8.9 13.6 8.2 13.6 7.7 12.4 L7.8 12.0 C7.9 11.8 7.9 11.6 7.9 11.3 L7.9 11.3" fill="none" filling="0" stroke="black" stroke-opacity="1.0" stroke-width=".3"/><path d="M10.9 14.7 L10.9 14.7 C10.7 14.7 10.5 14.7 10.3 14.7 L10.2 14.7 C9.9 14.7 9.6 14.7 9.3 14.7 L9.3 14.7 C8.9 14.6 8.6 14.6 8.3 14.5 L8.1 14.5 C7.8 14.4 7.5 14.3 7.2 14.2 L7.2 14.2 C5.9 13.8 5.0 12.7 4.7 11.4 C4.5 10.1 4.9 8.8 6.2 7.8 C7.2 7.1 8.3 6.8 9.5 6.7 C11.3 6.5 13.0 6.8 14.5 7.4 C15.9 8.1 17.1 9.3 17.6 11.0 L17.6 11.0 C17.0 12.4 16.5 13.1 15.2 13.9 L15.2 13.9 C16.6 14.9 17.3 16.4 17.3 17.9 C17.3 19.4 16.6 20.8 15.0 21.7 C13.1 22.9 10.8 23.0 8.7 22.7 C8.0 22.6 6.5 22.2 5.9 21.7 C4.8 20.7 4.6 19.5 4.9 18.2 C5.2 16.9 6.1 15.7 7.2 15.1 L7.4 15.0 C8.2 15.0 8.9 14.9 9.6 14.8 L9.9 14.8 C10.2 14.8 10.6 14.7 10.9 14.7 L10.9 14.7" fill="none" filling="0" stroke="black" stroke-opacity="1.0" stroke-width=".3"/><path d="M12.0 15.0 L12.0 15.0 C12.7 15.0 13.4 15.0 14.1 15.2 C15.1 15.5 15.7 16.7 15.9 17.7 C16.1 18.9 15.6 20.1 14.4 20.8 C13.1 21.6 11.0 21.8 9.1 21.4 C7.2 21.1 5.5 20.0 5.6 17.9 C5.6 16.7 6.3 15.8 7.3 15.3 C8.8 14.7 10.8 15.6 12.0 15.0 L12.0 15.0" fill="none" filling="0" stroke="black" stroke-opacity="1.0" stroke-width=".3"/></svg>