<svg xmlns="http://www.w3.org/2000/svg" height="200px" viewBox="0.0 0.0 24.0 24.0" width="200px"><path d="M17.6 21.7 L17.6 21.7 C17.7 22.0 17.7 22.3 17.6 22.5 L13.0 22.5 L13.0 21.7 L15.0 21.7 L15.0 15.9 L9.0 15.9 L9.0 21.7 L11.0 21.7 L11.0 22.5 L6.4 22.5 L6.4 21.7 L8.4 21.7 L8.4 15.6 L8.4 9.5 L6.4 9.5 L6.4 8.7 L11.0 8.7 L11.0 9.5 L9.0 9.5 L9.0 15.0 L15.0 15.0 L15.0 9.5 L13.0 9.5 L13.0 8.7 L17.6 8.7 L17.6 9.5 L15.6 9.5 L15.6 15.6 L15.6 21.7 L17.6 21.7" fill="none" filling="0" stroke="black" stroke-opacity="1.0" stroke-width=".3"/><path d="M18.0 22.8 L12.5 22.8 L12.5 21.3 L14.6 21.3 L14.6 16.4 L9.4 16.4 L9.4 21.3 L11.5 21.3 L11.5 22.8 L6.0 22.8 L6.0 21.3 L8.0 21.3 L8.0 15.6 L8.0 9.8 L6.0 9.8 L6.0 8.4 L11.5 8.4 L11.5 9.8 L9.4 9.8 L9.4 14.6 L14.6 14.6 L14.6 9.8 L12.5 9.8 L12.5 8.4 L18.0 8.4 L18.0 9.8 L16.0 9.8 L16.0 15.6 L16.0 21.3 L18.0 21.3 L18.0 22.8" fill="none" filling="0" stroke="black" stroke-opacity="1.0" stroke-width=".3"/></svg>