<svg xmlns="http://www.w3.org/2000/svg" height="200px" viewBox="0.0 0.0 24.0 24.0" width="200px"><path d="M6.2 10.4 L7.8 10.4 L7.8 11.0 C9.8 10.0 11.4 10.1 12.7 10.9 C14.0 11.7 15.0 13.1 16.0 14.9 L16.0 10.4 L17.8 10.4 L17.8 16.6 L17.8 22.8 L16.0 22.8 L16.0 16.3 C15.1 18.2 14.1 19.6 12.7 20.4 C11.4 21.3 9.8 21.5 7.8 20.8 L7.8 22.8 L6.2 22.8 L6.2 16.6 L6.2 10.4" fill="none" filling="0" stroke="black" stroke-opacity="1.0" stroke-width=".3"/><path d="M12.1 20.2 L12.1 20.2 C9.7 19.6 8.8 18.5 7.8 16.3 L7.8 12.1 C9.3 11.6 9.8 11.1 11.5 11.7 C13.2 12.3 14.2 13.8 14.6 15.4 C15.0 17.1 14.7 18.8 13.6 20.0 C13.1 20.4 12.6 20.5 12.1 20.2 L12.1 20.2" fill="none" filling="0" stroke="black" stroke-opacity="1.0" stroke-width=".3"/></svg>