<svg xmlns="http://www.w3.org/2000/svg" height="200px" viewBox="0.0 0.0 24.0 24.0" width="200px"><path d="M18.7 14.4 L18.7 14.4 C17.9 16.0 17.2 17.6 16.6 19.2 C15.9 20.8 15.3 22.5 14.8 24.2 L14.7 24.2 C14.7 23.7 14.7 23.2 14.6 22.8 L14.6 22.8 C14.4 23.1 14.2 23.5 14.0 23.8 L13.6 24.7 C13.2 25.7 12.9 26.7 12.6 27.7 L12.6 27.7 C13.2 26.0 13.9 24.5 14.6 22.9 L14.6 22.9 C14.6 23.0 14.5 23.1 14.5 23.1 L14.5 23.1 C14.4 22.5 14.3 21.8 14.2 21.2 L14.2 21.2 C13.1 23.1 12.2 24.9 11.4 26.8 L11.4 26.8 C11.2 25.9 11.2 25.1 11.2 24.3 L11.2 24.3 C11.1 24.4 11.0 24.5 10.9 24.5 L10.9 24.5 C11.2 23.4 11.5 22.3 11.8 21.3 L11.8 21.3 C10.7 23.1 9.9 25.0 9.1 26.9 L9.1 26.9 C8.9 26.2 8.6 25.5 8.4 24.7 L8.4 24.7 C8.0 25.6 7.6 26.5 7.1 27.4 L7.1 27.4 C7.0 26.6 6.8 25.8 6.8 25.0 L6.8 25.0 C6.3 25.7 5.8 26.4 5.3 27.1 L5.3 27.1 C5.3 26.3 5.2 25.5 5.2 24.7 L5.2 24.7 C5.1 24.9 4.9 25.1 4.8 25.3 L4.8 25.3 C4.6 24.6 4.4 23.9 4.3 23.2 L4.3 23.2 C5.0 21.8 5.7 20.5 6.4 19.1 C7.0 17.7 7.7 16.3 8.4 14.9 L8.4 14.9 C8.8 16.3 9.2 17.8 9.4 19.3 L9.4 19.3 C10.5 17.3 11.4 15.2 12.2 13.0 L12.2 13.0 C13.1 15.0 14.0 17.0 14.8 19.0 L14.8 19.0 C15.3 18.1 15.7 17.2 16.1 16.3 L16.1 16.3 C15.5 17.1 14.9 18.0 14.3 18.9 L14.3 18.9 C14.8 17.6 15.4 16.3 16.0 15.0 C16.6 13.8 17.3 12.5 18.1 11.4 L18.1 11.4 C18.5 12.4 18.8 13.4 19.1 14.4 L19.1 14.4 C19.0 14.4 18.9 14.4 18.7 14.4 L18.7 14.4" fill="none" filling="0" stroke="black" stroke-opacity="1.0" stroke-width=".3"/></svg>