<svg xmlns="http://www.w3.org/2000/svg" height="200px" viewBox="0.0 0.0 24.0 24.0" width="200px"><path d="M14.9 8.5 L14.9 8.5 C14.5 9.5 12.8 10.3 12.8 8.5 C12.8 6.8 14.5 7.6 14.9 8.5 L14.9 8.5" fill="none" filling="0" stroke="black" stroke-opacity="1.0" stroke-width=".3"/><path d="M14.9 11.4 L14.9 11.4 C14.9 13.2 15.0 15.1 15.0 16.9 C15.0 18.8 15.0 20.6 14.9 22.5 C14.8 23.7 14.5 25.4 13.8 26.6 C13.2 27.8 12.1 28.6 10.4 28.2 C9.4 27.9 7.0 26.3 8.1 24.9 C8.9 23.8 9.5 25.4 10.1 25.8 C11.1 26.6 12.3 26.3 12.7 25.0 C13.0 23.7 13.1 22.2 13.1 20.6 C13.1 19.1 13.0 17.6 13.0 16.3 C12.9 14.6 12.5 12.7 12.8 11.0 C13.1 9.4 14.5 10.3 14.9 11.4 L14.9 11.4" fill="none" filling="0" stroke="black" stroke-opacity="1.0" stroke-width=".3"/></svg>