<svg xmlns="http://www.w3.org/2000/svg" height="200px" viewBox="0.0 0.0 24.0 24.0" width="200px"><path d="M11.7 8.5 L11.7 8.5 C14.1 9.0 16.1 9.9 17.1 12.3 C17.8 14.0 17.4 15.8 16.3 17.2 C15.2 18.5 13.6 19.5 11.7 19.5 C9.9 19.5 8.3 18.6 7.2 17.2 C6.2 15.8 5.8 14.0 6.5 12.3 C7.5 9.9 9.5 9.0 11.7 8.5 L11.7 8.5" fill="none" filling="0" stroke="black" stroke-opacity="1.0" stroke-width=".3"/><path d="M11.7 8.7 L11.7 8.7 C13.7 9.1 15.7 9.9 16.7 11.9 C17.6 13.7 17.3 15.7 16.3 17.2 C15.3 18.6 13.6 19.4 11.7 19.4 C9.9 19.4 8.3 18.6 7.3 17.2 C6.4 15.7 6.1 13.7 6.9 11.9 C7.9 9.9 9.6 9.1 11.7 8.7 L11.7 8.7" fill="none" filling="0" stroke="black" stroke-opacity="1.0" stroke-width=".3"/><path d="M11.7 8.9 L11.7 8.9 C13.5 9.2 15.3 9.9 16.4 11.7 C17.5 13.5 17.3 15.5 16.4 17.1 C15.4 18.6 13.7 19.3 11.7 19.3 C9.9 19.3 8.4 18.6 7.4 17.1 C6.4 15.6 6.2 13.8 7.0 11.9 C8.1 9.9 9.8 9.2 11.7 8.9 L11.7 8.9" fill="none" filling="0" stroke="black" stroke-opacity="1.0" stroke-width=".3"/><path d="M11.7 10.6 L11.7 10.6 C13.4 10.8 14.6 11.2 15.5 12.9 C16.3 14.3 16.1 15.8 15.4 17.0 C14.6 18.1 13.3 18.9 11.7 18.9 C10.1 18.9 8.8 18.1 8.1 17.0 C7.4 15.8 7.2 14.3 8.0 12.9 C8.8 11.2 10.0 10.8 11.7 10.6 L11.7 10.6" fill="none" filling="0" stroke="black" stroke-opacity="1.0" stroke-width=".3"/><path d="M11.7 10.7 L11.7 10.7 C13.2 10.9 14.5 11.3 15.3 12.8 C16.1 14.2 16.0 15.8 15.2 16.9 C14.4 18.1 13.2 18.8 11.7 18.8 C10.3 18.8 9.0 18.1 8.2 16.9 C7.5 15.8 7.4 14.2 8.2 12.8 C9.0 11.3 10.2 10.9 11.7 10.7 L11.7 10.7" fill="none" filling="0" stroke="black" stroke-opacity="1.0" stroke-width=".3"/><path d="M11.7 10.8 L11.7 10.8 C13.2 11.1 14.5 11.4 15.3 12.9 C16.0 14.2 15.9 15.7 15.2 16.8 C14.5 17.9 13.3 18.8 11.7 18.8 C10.3 18.8 9.0 17.9 8.3 16.8 C7.6 15.7 7.4 14.2 8.2 12.9 C9.0 11.4 10.3 11.1 11.7 10.8 L11.7 10.8" fill="none" filling="0" stroke="black" stroke-opacity="1.0" stroke-width=".3"/><path d="M11.7 11.7 L11.7 11.7 C12.1 11.7 12.5 11.8 12.9 11.9 L12.9 13.0 L13.5 13.0 L13.5 13.4 L12.9 13.4 L12.9 14.4 C12.6 14.6 12.3 15.1 11.9 15.1 C11.5 15.1 11.2 14.6 10.8 14.4 L10.8 13.4 L10.3 13.4 L10.3 13.0 L10.8 13.0 L10.8 11.9 C11.2 11.8 11.4 11.7 11.7 11.7 L11.7 11.7" fill="none" filling="0" stroke="black" stroke-opacity="1.0" stroke-width=".3"/><path d="M11.7 11.8 L11.7 11.8 C12.0 11.9 12.3 12.0 12.7 12.1 L12.7 13.0 L13.2 13.0 L13.2 14.4 C12.8 14.6 12.5 15.0 12.1 15.0 C11.7 15.0 11.3 14.6 11.0 14.4 L11.0 13.0 L11.0 12.1 C11.2 12.0 11.5 11.9 11.7 11.8 L11.7 11.8" fill="none" filling="0" stroke="black" stroke-opacity="1.0" stroke-width=".3"/><path d="M11.7 12.0 L11.7 12.0 C12.0 12.1 12.3 12.1 12.5 12.2 L12.5 13.2 L13.1 13.2 L13.1 14.4 C12.7 14.6 12.4 15.0 11.9 15.0 C11.6 15.0 11.3 14.6 11.1 14.4 L11.1 13.2 L11.1 12.2 C11.3 12.1 11.5 12.1 11.7 12.0 L11.7 12.0" fill="none" filling="0" stroke="black" stroke-opacity="1.0" stroke-width=".3"/><path d="M11.7 12.4 L11.7 12.4 C11.7 14.0 11.7 14.0 11.7 12.4 L11.7 12.4" fill="none" filling="0" stroke="black" stroke-opacity="1.0" stroke-width=".3"/><path d="M10.8 12.8 L10.8 12.8 C11.2 12.3 11.2 13.2 10.8 12.8 L10.8 12.8" fill="none" filling="0" stroke="black" stroke-opacity="1.0" stroke-width=".3"/><path d="M13.0 12.8 L13.0 12.8 C13.4 12.3 13.4 13.2 13.0 12.8 L13.0 12.8" fill="none" filling="0" stroke="black" stroke-opacity="1.0" stroke-width=".3"/><path d="M10.8 13.5 L10.8 13.5 C11.2 13.2 11.2 14.0 10.8 13.5 L10.8 13.5" fill="none" filling="0" stroke="black" stroke-opacity="1.0" stroke-width=".3"/><path d="M13.0 13.5 L13.0 13.5 C13.4 13.2 13.4 14.0 13.0 13.5 L13.0 13.5" fill="none" filling="0" stroke="black" stroke-opacity="1.0" stroke-width=".3"/><path d="M10.8 13.8 L10.8 13.8 C11.2 13.4 11.2 14.2 10.8 13.8 L10.8 13.8" fill="none" filling="0" stroke="black" stroke-opacity="1.0" stroke-width=".3"/><path d="M13.0 13.8 L13.0 13.8 C13.4 13.4 13.4 14.2 13.0 13.8 L13.0 13.8" fill="none" filling="0" stroke="black" stroke-opacity="1.0" stroke-width=".3"/><path d="M9.0 14.4 L9.0 14.4 C9.0 15.3 9.0 15.3 9.0 14.4 L9.0 14.4" fill="none" filling="0" stroke="black" stroke-opacity="1.0" stroke-width=".3"/><path d="M15.0 14.4 L15.0 14.4 C15.0 15.3 15.0 15.3 15.0 14.4 L15.0 14.4" fill="none" filling="0" stroke="black" stroke-opacity="1.0" stroke-/></svg>