<svg xmlns="http://www.w3.org/2000/svg" height="200px" viewBox="0.0 0.0 24.0 24.0" width="200px"><path d="M11.7 8.5 L11.7 8.5 C12.3 8.7 12.8 9.1 13.2 9.6 L13.2 9.6 C13.6 9.8 14.1 9.8 14.4 10.1 C15.6 11.3 14.7 13.4 13.2 13.9 C11.8 14.4 10.4 13.9 9.2 13.4 L9.2 13.4 C8.8 13.6 8.4 13.8 8.0 14.0 L8.0 14.0 C8.2 11.5 8.3 9.2 11.7 8.5 L11.7 8.5" fill="none" filling="0" stroke="black" stroke-opacity="1.0" stroke-width=".3"/><path d="M11.7 8.7 L11.7 8.7 C12.1 8.9 12.6 9.0 12.9 9.4 C14.1 10.6 13.3 13.0 11.7 13.6 C10.5 14.0 9.8 13.5 8.8 13.2 L8.8 13.2 C9.0 11.0 9.1 9.6 11.7 8.7 L11.7 8.7" fill="none" filling="0" stroke="black" stroke-opacity="1.0" stroke-width=".3"/><path d="M11.7 8.9 L11.7 8.9 C12.1 9.1 12.5 9.3 12.8 9.6 C13.9 10.8 13.1 12.9 11.7 13.4 C10.6 13.8 9.9 13.4 9.0 13.1 L9.0 13.1 C9.2 11.0 9.3 9.7 11.7 8.9 L11.7 8.9" fill="none" filling="0" stroke="black" stroke-opacity="1.0" stroke-width=".3"/><path d="M11.7 9.1 L11.7 9.1 C12.1 9.4 12.5 9.5 12.8 9.8 C13.8 10.9 12.9 12.9 11.7 13.4 C10.7 13.8 10.0 13.4 9.0 13.1 L9.0 13.1 C9.2 11.0 9.3 9.8 11.7 9.1 L11.7 9.1" fill="none" filling="0" stroke="black" stroke-opacity="1.0" stroke-width=".3"/><path d="M11.7 9.6 L11.7 9.6 C11.9 9.7 12.1 9.8 12.3 9.9 L12.3 9.9 C12.3 9.9 12.3 10.0 12.3 10.1 L12.3 10.1 C12.3 10.1 12.3 10.1 12.3 10.1 L12.3 10.1 C12.2 10.1 12.1 10.1 12.0 10.1 L12.0 10.1 C12.0 10.1 11.9 10.1 11.9 10.1 L11.9 10.1 C11.9 10.1 11.9 10.1 11.8 10.1 L11.8 10.1 C11.8 10.1 11.8 10.1 11.8 10.1 L11.8 10.1 C11.8 10.1 11.8 10.1 11.8 10.1 L11.8 10.1 C11.8 10.1 11.8 10.1 11.8 10.1 L11.8 10.1 C11.8 10.1 11.8 10.1 11.8 10.1 L11.8 10.1 C11.8 10.1 11.8 10.1 11.8 10.1 L11.8 10.1 C11.8 10.1 11.8 10.1 11.8 10.1 L11.8 10.1 C11.8 10.1 11.8 10.1 11.8 10.1 L11.8 10.1 C11.8 10.1 11.8 10.1 11.8 10.1 L11.8 10.1 C11.8 10.1 11.8 10.1 11.8 10.1 L11.8 10.1 C11.8 10.1 11.8 10.1 11.8 10.1 L11.8 10.1 C11.8 10.1 11.8 10.1 11.8 10.1 L11.8 10.1 C11.8 10.1 11.8 10.1 11.8 10.1 L11.8 10.1 C11.8 10.1 11.8 10.1 11.8 10.1 L11.8 10.1 C11.8 10.1 11.8 10.1 11.8 10.1 L11.8 10.1 C11.8 10.1 11.8 10.1 11.8 10.1 L11.8 10.1 C11.8 10.1 11.8 10.1 11.8 10.1 L11.8 10.1 C11.8 10.1 11.8 10.1 11.8 10.1 L11.8 10.1 C11.8 10.1 11.8 10.1 11.8 10.1 L11.8 10.1 C11.8 10.1 11.8 10.1 11.8 10.1 L11.8 10.1 C11.8 10.1 11.8 10.1 11.8 10.1 L11.8 10.1 C11.8 10.1 11.8 10.1 11.8 10.1 L11.8 10.1 C11.8 10.1 11.8 10.1 11.8 10.1 L11.8 10.1 C11.8 10.1 11.8 10.1 11.8 10.1 L11.8 10.1 C11.8 10.1 11.8 10.1 11.8 10.1 L11.8 10.1 C11.8 10.1 11.8 10.1 11.8 10.1 L11.8 10.1 C11.8 10.1 11.8 10.1 11.8 10.1 L11.8 10.1 C11.8 10.1 11.8 10.1 11.8 10.1 L11.8 10.1 C11.8 10.1 11.8 10.1 11.8 10.1 L11.8 10.1 C11.8 10.1 11.8 10.1 11.8 10.1 L11.8 10.1 C11.8 10.1 11.8 10.1 11.8 10.1 L11.8 10.1 C11.8 10.1 11.8 10.1 11.8 10.1 L11.8 10.1 C11.8 10.1 11.8 10.1 11.8 10.1 L11.8 10.1 C11.8 10.1 11.8 10.1 11.8 10.1 L11.8 10.1 C11.8 10.1 11.8 10.1 11.8 10.1 L11.8 10.1 C11.8 10.1 11.8 10.1 11.8 10.1 L11.8 10.1 C11.8 10.1 11.8 10.1 11.8 10.1 L11.8 10.1 C11.8 10.1 11.8 10.1 11.8 10.1 L11.8 10.1 C11.8 10.1 11.8 10.1 11.8 10.1 L11.8 10.1 C11.8 10.1 11.8 10.1 11.8 10.1 L11.8 10.1 C11.8 10.1 11.8 10.1 11.8 10.1 L11.8 10.1 C11.8 10.1 11.8 10.1 11.8 10.1 L11.8 10.1 C11.8 10.1 11.8 10.1 11.8 10.1 L11.8 10.1 C11.8 10.1 11.8 10.1 11.8 10.1 L11.8 10.1 C11.8 10.1 11.8 10.1 11.8 10.1 L11.8 10.1 C11.8 10.1 11.8 10.1 11.8 10.1 L11.8 10.1 C11.8 10.1 11.8 10.1 11.8 10.1 L11.8 10.1 C11.8 10.1 11.8 10.1 11.8 10.1 L11.8 10.1 C11.8 10.1 11.8 10.1 11.8 10.1 L11.8 10.1 C11.8 10.1 11.8 10.1 11.8 10.1 L11.8 10.1 C11.8 10.1 11.8 10.1 11.8 10.1 L11.8 10.1 C11.8 10.1 11.8 10.1 11.8 10.1 L11.8 10.1 C11.8 10.1 11.8 10.1 11.8 10.1 L11.8 10.1 C11.8 10.1 11.8 10.1 11.8 10.1 L11.8 10.1 C11.8 10.1 11.8 10.1 11.8 10.1 L11.8 10.1 C11.8 10.1 11.8 10.1 11.8 10.1 L11.8 10.1 C11.8 10.1 11.8 10.1 11.8 10.1 L11.8 10.1 C11.8 10.1 11.8 10.1 11.8 10.1 L11.8 10.1 C11.8 10.1 11.8 10.1 11.8 10.1 L11.8 10.1 C11.8 10.1 11.8 10.1 11.8 10.1 L11.8 10.1 C11.8 10.1 11.8 10.1 11.8 10.1 L11.8 10.1 C11.8 10.1 11.8 10.1 11.8 10.1 L11.8 10.1 C11.8 10.1 11.8 10.1 11.8 10.1 L11.8 10.1 C11.8 10.1 11.8 10.1 11.8 10.1 L11.8 10.1 C11.8 10.1 11.8 10.1 11.8 10.1 L11.8 10.1 C11.8 10.1 11.8 10.1 11.8 10.1 L11.8 10.1 C11.8 10.1 11.8 10.1 11.8 10.1 L11.8 10.1 C11.8 10.1 11.8"/></svg>