<svg xmlns="http://www.w3.org/2000/svg" height="200px" viewBox="0.0 0.0 24.0 24.0" width="200px"><path d="M9.2 3.7 L9.2 3.7 C9.5 3.8 9.8 3.8 10.1 3.9 L10.1 11.3 L10.1 18.7 C9.5 18.7 8.9 19.0 8.3 18.8 C7.7 18.7 7.3 18.1 6.9 17.7 L6.9 17.7 C5.2 17.1 4.6 16.7 4.8 14.9 L4.8 14.9 C3.5 13.4 3.3 13.3 3.8 11.5 L3.8 11.5 C4.9 11.2 5.4 10.8 6.6 11.1 C7.0 11.2 7.4 11.5 7.8 11.6 C7.9 11.6 8.3 11.6 8.2 11.5 C7.2 9.9 5.3 10.5 3.8 10.8 L3.8 10.8 C3.4 8.4 3.3 6.5 5.9 5.6 L5.9 5.6 C7.3 4.2 7.4 3.9 9.2 3.7 L9.2 3.7" fill="none" filling="0" stroke="black" stroke-opacity="1.0" stroke-width=".3"/><path d="M11.7 3.7 L11.7 3.7 C13.5 4.1 13.9 4.2 15.0 5.6 L15.0 5.6 C16.8 6.3 18.0 8.0 17.3 10.1 C16.8 11.7 16.0 11.8 14.6 12.2 C14.2 12.3 13.1 12.3 13.4 12.5 C14.6 13.4 16.1 12.3 17.1 11.7 L17.1 11.7 C17.2 12.3 17.4 12.9 17.2 13.5 C17.0 14.1 16.4 14.4 16.0 14.9 L16.0 14.9 C16.3 16.5 15.0 18.4 13.3 16.7 C12.7 16.2 13.0 14.8 12.3 14.7 C11.9 14.7 11.9 15.3 12.0 15.6 C12.2 16.7 13.0 17.2 13.8 17.8 L13.8 17.8 C12.7 18.7 12.1 19.0 10.7 18.7 L10.7 11.3 L10.7 3.9 C11.0 3.8 11.4 3.8 11.7 3.7 L11.7 3.7" fill="none" filling="0" stroke="black" stroke-opacity="1.0" stroke-width=".3"/><path d="M8.6 6.8 L8.6 6.8 C10.3 8.4 4.3 9.1 7.5 7.9 L7.5 7.9 C7.9 7.5 8.3 7.1 8.6 6.8 L8.6 6.8" fill="none" filling="0" stroke="black" stroke-opacity="1.0" stroke-width=".3"/><path d="M12.8 7.4 L12.8 7.4 C13.2 7.8 13.4 8.4 13.9 8.8 C14.6 9.4 16.9 9.2 14.5 9.7 L14.5 9.7 C14.0 9.4 13.4 9.3 13.0 8.8 C12.7 8.4 12.9 7.8 12.8 7.4 L12.8 7.4" fill="none" filling="0" stroke="black" stroke-opacity="1.0" stroke-width=".3"/><path d="M6.2 12.8 L6.2 12.8 C7.1 13.2 7.9 13.3 8.1 14.4 C8.2 14.9 8.0 15.9 7.7 15.6 L7.7 15.6 C7.6 14.9 7.2 14.2 6.8 13.7 L6.8 13.7 C6.5 13.5 5.9 13.0 6.2 12.8 L6.2 12.8" fill="none" filling="0" stroke="black" stroke-opacity="1.0" stroke-width=".3"/></svg>