<svg xmlns="http://www.w3.org/2000/svg" height="200px" viewBox="0.0 0.0 24.0 24.0" width="200px"><path d="M9.0 15.7 L9.0 15.7 C7.3 15.4 6.9 14.7 6.8 13.1 L7.9 13.1 C9.6 13.4 10.1 14.0 10.3 15.7 L9.0 15.7" fill="none" filling="0" stroke="black" stroke-opacity="1.0" stroke-width=".3"/><path d="M17.9 16.4 L17.9 16.4 C17.1 18.2 16.3 18.9 14.3 19.2 L8.4 19.2 C6.8 18.9 6.2 18.4 6.1 16.6 L10.3 16.6 L14.5 16.6 C14.8 16.5 15.1 16.3 15.3 16.0 L15.9 13.0 C15.9 12.7 15.7 12.5 15.4 12.3 L9.8 12.3 C8.2 12.0 7.5 11.5 7.5 9.8 L7.8 8.4 C8.5 6.9 8.7 8.9 9.1 9.3 C9.5 9.7 9.9 9.7 10.5 9.8 L16.4 9.8 C18.2 10.1 18.7 10.9 18.6 12.7 L17.9 16.4" fill="none" filling="0" stroke="black" stroke-opacity="1.0" stroke-width=".3"/><path d="M9.3 20.1 L9.3 20.1 C8.5 21.8 7.7 22.5 5.9 22.8 L4.8 22.8 C5.5 21.2 6.3 20.5 8.0 20.1 L9.3 20.1" fill="none" filling="0" stroke="black" stroke-opacity="1.0" stroke-width=".3"/><path d="M12.2 22.8 L12.2 22.8 C10.5 22.5 10.0 21.9 9.9 20.1 L11.2 20.1 C12.8 20.5 13.3 21.2 13.3 22.8 L12.2 22.8" fill="none" filling="0" stroke="black" stroke-opacity="1.0" stroke-width=".3"/></svg>