<svg xmlns="http://www.w3.org/2000/svg" height="200px" viewBox="0.0 0.0 24.0 24.0" width="200px"><path d="M17.2 12.1 L17.2 15.5 L15.4 15.5 C15.0 15.1 14.6 14.5 14.0 14.2 C11.3 12.7 9.5 14.5 9.0 16.7 C8.5 18.9 9.4 21.4 12.4 21.2 C13.0 21.1 13.7 21.0 14.2 20.7 C14.7 20.4 15.0 19.8 15.4 19.3 L17.6 19.3 C16.9 20.6 16.8 21.2 15.6 22.1 C14.6 22.8 13.5 23.1 12.3 23.1 C9.9 23.1 8.3 21.9 7.5 20.2 C6.7 18.4 6.7 16.3 7.5 14.6 C8.2 12.9 9.8 11.7 12.2 11.8 C14.1 12.0 14.0 12.3 15.5 13.3 L15.5 12.1 L17.2 12.1" fill="none" filling="0" stroke="black" stroke-opacity="1.0" stroke-width=".3"/></svg>