<svg xmlns="http://www.w3.org/2000/svg" height="200px" viewBox="0.0 0.0 24.0 24.0" width="200px"><path d="M17.2 9.9 L16.4 13.9 L15.5 17.9 L11.3 17.9 L7.1 17.9 C8.2 15.8 9.6 14.2 11.3 12.9 C13.0 11.6 15.0 10.6 17.2 9.9 L17.2 9.9" fill="none" filling="0" stroke="black" stroke-opacity="1.0" stroke-width=".3"/><path d="M21.1 18.6 L21.1 18.6 C20.7 18.9 20.2 19.1 19.7 19.2 L17.3 19.2 L16.8 22.0 C16.3 22.3 16.0 22.8 15.5 22.9 C13.8 23.0 15.1 19.8 15.2 19.2 L11.0 19.2 L6.7 19.2 C6.3 19.1 5.8 19.2 5.4 19.0 C3.9 18.3 6.6 15.4 6.9 14.9 C8.0 13.7 9.3 12.5 10.7 11.6 C12.1 10.7 13.6 9.9 15.2 9.3 C16.1 8.9 19.7 7.2 19.4 9.6 L18.5 13.8 L17.6 17.9 L20.0 17.9 C20.3 18.1 20.7 18.4 21.1 18.6 L21.1 18.6" fill="none" filling="0" stroke="black" stroke-opacity="1.0" stroke-width=".3"/></svg>